STARTFONT 2.1
FONT --Tile7R20S-Regular-R-Normal--9-90-72-72-P-50-FONTSPECIFIC-0
SIZE 9 72 72
FONTBOUNDINGBOX 5 9 0 -2
METRICSSET 2
STARTPROPERTIES 19
FONT_ASCENT 7
FONT_DESCENT 2
PIXEL_SIZE 9
RESOLUTION_X 72
RESOLUTION_Y 72
POINT_SIZE 90
FACE_NAME "Classic/Modern 8-point 20-pitch"
FOUNDRY ""
FAMILY_NAME "Tile7R20S"
WEIGHT_NAME "Regular"
RELATIVE_WEIGHT 50
SLANT "R"
SPACING "P"
SETWIDTH_NAME "Normal"
RELATIVE_SETWIDTH 50
ADD_STYLE_NAME ""
AVERAGE_WIDTH 50
CHARSET_REGISTRY "FONTSPECIFIC"
CHARSET_ENCODING "0"
ENDPROPERTIES
CHARS 193
STARTCHAR char08
ENCODING 8
SWIDTH 556 0
DWIDTH 5 0
BBX 5 9 0 -2
VVECTOR 3 7
SWIDTH1 0 -1000
DWIDTH1 0 -9
BITMAP 
00
00
80
A0
F8
A0
80
00
00
ENDCHAR
STARTCHAR char09
ENCODING 9
SWIDTH 556 0
DWIDTH 5 0
BBX 5 9 0 -2
VVECTOR 3 7
SWIDTH1 0 -1000
DWIDTH1 0 -9
BITMAP 
00
00
08
28
F8
28
08
00
00
ENDCHAR
STARTCHAR char0C
ENCODING 12
SWIDTH 556 0
DWIDTH 5 0
BBX 5 9 0 -2
VVECTOR 3 7
SWIDTH1 0 -1000
DWIDTH1 0 -9
BITMAP 
00
F8
88
88
88
88
A8
70
00
ENDCHAR
STARTCHAR char0D
ENCODING 13
SWIDTH 556 0
DWIDTH 5 0
BBX 5 9 0 -2
VVECTOR 3 7
SWIDTH1 0 -1000
DWIDTH1 0 -9
BITMAP 
00
70
08
08
48
F0
40
00
00
ENDCHAR
STARTCHAR char1C
ENCODING 28
SWIDTH 556 0
DWIDTH 5 0
BBX 5 9 0 -2
VVECTOR 3 7
SWIDTH1 0 -1000
DWIDTH1 0 -9
BITMAP 
00
00
00
40
F8
40
00
00
00
ENDCHAR
STARTCHAR char1D
ENCODING 29
SWIDTH 556 0
DWIDTH 5 0
BBX 5 9 0 -2
VVECTOR 3 7
SWIDTH1 0 -1000
DWIDTH1 0 -9
BITMAP 
00
00
00
10
F8
10
00
00
00
ENDCHAR
STARTCHAR char1E
ENCODING 30
SWIDTH 556 0
DWIDTH 5 0
BBX 3 9 1 -2
VVECTOR 3 7
SWIDTH1 0 -1000
DWIDTH1 0 -9
BITMAP 
00
40
E0
40
40
40
00
00
00
ENDCHAR
STARTCHAR char1F
ENCODING 31
SWIDTH 556 0
DWIDTH 5 0
BBX 3 9 1 -2
VVECTOR 3 7
SWIDTH1 0 -1000
DWIDTH1 0 -9
BITMAP 
00
40
40
40
E0
40
00
00
00
ENDCHAR
STARTCHAR char20
ENCODING 32
SWIDTH 556 0
DWIDTH 5 0
BBX 1 9 0 -2
VVECTOR 1 7
SWIDTH1 0 -1000
DWIDTH1 0 -9
BITMAP 
00
00
00
00
00
00
00
00
00
ENDCHAR
STARTCHAR char21
ENCODING 33
SWIDTH 556 0
DWIDTH 5 0
BBX 1 9 2 -2
VVECTOR 3 7
SWIDTH1 0 -1000
DWIDTH1 0 -9
BITMAP 
00
80
80
80
80
00
80
00
00
ENDCHAR
STARTCHAR char22
ENCODING 34
SWIDTH 556 0
DWIDTH 5 0
BBX 3 9 1 -2
VVECTOR 3 7
SWIDTH1 0 -1000
DWIDTH1 0 -9
BITMAP 
00
A0
A0
00
00
00
00
00
00
ENDCHAR
STARTCHAR char23
ENCODING 35
SWIDTH 556 0
DWIDTH 5 0
BBX 5 9 0 -2
VVECTOR 3 7
SWIDTH1 0 -1000
DWIDTH1 0 -9
BITMAP 
00
50
D8
50
50
D8
50
00
00
ENDCHAR
STARTCHAR char24
ENCODING 36
SWIDTH 556 0
DWIDTH 5 0
BBX 4 9 0 -2
VVECTOR 2 7
SWIDTH1 0 -1000
DWIDTH1 0 -9
BITMAP 
00
40
60
80
60
10
E0
40
00
ENDCHAR
STARTCHAR char25
ENCODING 37
SWIDTH 556 0
DWIDTH 5 0
BBX 4 9 0 -2
VVECTOR 2 7
SWIDTH1 0 -1000
DWIDTH1 0 -9
BITMAP 
00
00
50
B0
50
10
10
00
00
ENDCHAR
STARTCHAR char26
ENCODING 38
SWIDTH 556 0
DWIDTH 5 0
BBX 5 9 0 -2
VVECTOR 3 7
SWIDTH1 0 -1000
DWIDTH1 0 -9
BITMAP 
00
40
A0
40
A8
90
68
00
00
ENDCHAR
STARTCHAR char27
ENCODING 39
SWIDTH 556 0
DWIDTH 5 0
BBX 1 9 2 -2
VVECTOR 3 7
SWIDTH1 0 -1000
DWIDTH1 0 -9
BITMAP 
00
80
80
00
00
00
00
00
00
ENDCHAR
STARTCHAR char28
ENCODING 40
SWIDTH 556 0
DWIDTH 5 0
BBX 3 9 1 -2
VVECTOR 3 7
SWIDTH1 0 -1000
DWIDTH1 0 -9
BITMAP 
00
20
40
80
80
80
40
20
00
ENDCHAR
STARTCHAR char29
ENCODING 41
SWIDTH 556 0
DWIDTH 5 0
BBX 3 9 1 -2
VVECTOR 3 7
SWIDTH1 0 -1000
DWIDTH1 0 -9
BITMAP 
00
80
40
20
20
20
40
80
00
ENDCHAR
STARTCHAR char2A
ENCODING 42
SWIDTH 556 0
DWIDTH 5 0
BBX 3 9 1 -2
VVECTOR 3 7
SWIDTH1 0 -1000
DWIDTH1 0 -9
BITMAP 
00
00
A0
40
A0
00
00
00
00
ENDCHAR
STARTCHAR char2B
ENCODING 43
SWIDTH 556 0
DWIDTH 5 0
BBX 3 9 1 -2
VVECTOR 3 7
SWIDTH1 0 -1000
DWIDTH1 0 -9
BITMAP 
00
00
00
40
E0
40
00
00
00
ENDCHAR
STARTCHAR char2C
ENCODING 44
SWIDTH 556 0
DWIDTH 5 0
BBX 2 9 1 -2
VVECTOR 2 7
SWIDTH1 0 -1000
DWIDTH1 0 -9
BITMAP 
00
00
00
00
00
00
40
80
00
ENDCHAR
STARTCHAR char2D
ENCODING 45
SWIDTH 556 0
DWIDTH 5 0
BBX 4 9 0 -2
VVECTOR 2 7
SWIDTH1 0 -1000
DWIDTH1 0 -9
BITMAP 
00
00
00
00
F0
00
00
00
00
ENDCHAR
STARTCHAR char2E
ENCODING 46
SWIDTH 556 0
DWIDTH 5 0
BBX 2 9 1 -2
VVECTOR 2 7
SWIDTH1 0 -1000
DWIDTH1 0 -9
BITMAP 
00
00
00
00
00
00
C0
00
00
ENDCHAR
STARTCHAR char2F
ENCODING 47
SWIDTH 556 0
DWIDTH 5 0
BBX 3 9 1 -2
VVECTOR 3 7
SWIDTH1 0 -1000
DWIDTH1 0 -9
BITMAP 
00
20
20
40
40
80
80
00
00
ENDCHAR
STARTCHAR char30
ENCODING 48
SWIDTH 556 0
DWIDTH 5 0
BBX 4 9 0 -2
VVECTOR 2 7
SWIDTH1 0 -1000
DWIDTH1 0 -9
BITMAP 
00
60
90
D0
B0
90
60
00
00
ENDCHAR
STARTCHAR char31
ENCODING 49
SWIDTH 556 0
DWIDTH 5 0
BBX 3 9 1 -2
VVECTOR 3 7
SWIDTH1 0 -1000
DWIDTH1 0 -9
BITMAP 
00
20
E0
20
20
20
20
00
00
ENDCHAR
STARTCHAR char32
ENCODING 50
SWIDTH 556 0
DWIDTH 5 0
BBX 4 9 0 -2
VVECTOR 2 7
SWIDTH1 0 -1000
DWIDTH1 0 -9
BITMAP 
00
60
90
10
20
40
F0
00
00
ENDCHAR
STARTCHAR char33
ENCODING 51
SWIDTH 556 0
DWIDTH 5 0
BBX 4 9 0 -2
VVECTOR 2 7
SWIDTH1 0 -1000
DWIDTH1 0 -9
BITMAP 
00
60
90
20
10
90
60
00
00
ENDCHAR
STARTCHAR char34
ENCODING 52
SWIDTH 556 0
DWIDTH 5 0
BBX 4 9 0 -2
VVECTOR 2 7
SWIDTH1 0 -1000
DWIDTH1 0 -9
BITMAP 
00
80
A0
A0
A0
F0
20
00
00
ENDCHAR
STARTCHAR char35
ENCODING 53
SWIDTH 556 0
DWIDTH 5 0
BBX 4 9 0 -2
VVECTOR 2 7
SWIDTH1 0 -1000
DWIDTH1 0 -9
BITMAP 
00
F0
80
E0
10
10
E0
00
00
ENDCHAR
STARTCHAR char36
ENCODING 54
SWIDTH 556 0
DWIDTH 5 0
BBX 4 9 0 -2
VVECTOR 2 7
SWIDTH1 0 -1000
DWIDTH1 0 -9
BITMAP 
00
60
80
E0
90
90
60
00
00
ENDCHAR
STARTCHAR char37
ENCODING 55
SWIDTH 556 0
DWIDTH 5 0
BBX 4 9 0 -2
VVECTOR 2 7
SWIDTH1 0 -1000
DWIDTH1 0 -9
BITMAP 
00
F0
10
20
20
40
40
00
00
ENDCHAR
STARTCHAR char38
ENCODING 56
SWIDTH 556 0
DWIDTH 5 0
BBX 4 9 0 -2
VVECTOR 2 7
SWIDTH1 0 -1000
DWIDTH1 0 -9
BITMAP 
00
60
90
60
90
90
60
00
00
ENDCHAR
STARTCHAR char39
ENCODING 57
SWIDTH 556 0
DWIDTH 5 0
BBX 4 9 0 -2
VVECTOR 2 7
SWIDTH1 0 -1000
DWIDTH1 0 -9
BITMAP 
00
60
90
90
70
10
60
00
00
ENDCHAR
STARTCHAR char3A
ENCODING 58
SWIDTH 556 0
DWIDTH 5 0
BBX 2 9 1 -2
VVECTOR 2 7
SWIDTH1 0 -1000
DWIDTH1 0 -9
BITMAP 
00
00
00
C0
00
00
C0
00
00
ENDCHAR
STARTCHAR char3B
ENCODING 59
SWIDTH 556 0
DWIDTH 5 0
BBX 2 9 1 -2
VVECTOR 2 7
SWIDTH1 0 -1000
DWIDTH1 0 -9
BITMAP 
00
00
00
C0
00
00
40
80
00
ENDCHAR
STARTCHAR char3C
ENCODING 60
SWIDTH 556 0
DWIDTH 5 0
BBX 3 9 1 -2
VVECTOR 3 7
SWIDTH1 0 -1000
DWIDTH1 0 -9
BITMAP 
00
00
20
40
80
40
20
00
00
ENDCHAR
STARTCHAR char3D
ENCODING 61
SWIDTH 556 0
DWIDTH 5 0
BBX 4 9 0 -2
VVECTOR 2 7
SWIDTH1 0 -1000
DWIDTH1 0 -9
BITMAP 
00
00
00
F0
00
F0
00
00
00
ENDCHAR
STARTCHAR char3E
ENCODING 62
SWIDTH 556 0
DWIDTH 5 0
BBX 3 9 1 -2
VVECTOR 3 7
SWIDTH1 0 -1000
DWIDTH1 0 -9
BITMAP 
00
00
80
40
20
40
80
00
00
ENDCHAR
STARTCHAR char3F
ENCODING 63
SWIDTH 556 0
DWIDTH 5 0
BBX 4 9 0 -2
VVECTOR 2 7
SWIDTH1 0 -1000
DWIDTH1 0 -9
BITMAP 
00
60
90
20
40
00
40
00
00
ENDCHAR
STARTCHAR char40
ENCODING 64
SWIDTH 556 0
DWIDTH 5 0
BBX 4 9 0 -2
VVECTOR 2 7
SWIDTH1 0 -1000
DWIDTH1 0 -9
BITMAP 
00
60
90
10
70
50
70
00
00
ENDCHAR
STARTCHAR char41
ENCODING 65
SWIDTH 556 0
DWIDTH 5 0
BBX 4 9 0 -2
VVECTOR 2 7
SWIDTH1 0 -1000
DWIDTH1 0 -9
BITMAP 
00
60
90
90
F0
90
90
00
00
ENDCHAR
STARTCHAR char42
ENCODING 66
SWIDTH 556 0
DWIDTH 5 0
BBX 4 9 0 -2
VVECTOR 2 7
SWIDTH1 0 -1000
DWIDTH1 0 -9
BITMAP 
00
E0
90
E0
90
90
E0
00
00
ENDCHAR
STARTCHAR char43
ENCODING 67
SWIDTH 556 0
DWIDTH 5 0
BBX 4 9 0 -2
VVECTOR 2 7
SWIDTH1 0 -1000
DWIDTH1 0 -9
BITMAP 
00
60
90
80
80
90
60
00
00
ENDCHAR
STARTCHAR char44
ENCODING 68
SWIDTH 556 0
DWIDTH 5 0
BBX 4 9 0 -2
VVECTOR 2 7
SWIDTH1 0 -1000
DWIDTH1 0 -9
BITMAP 
00
E0
90
90
90
90
E0
00
00
ENDCHAR
STARTCHAR char45
ENCODING 69
SWIDTH 556 0
DWIDTH 5 0
BBX 4 9 0 -2
VVECTOR 2 7
SWIDTH1 0 -1000
DWIDTH1 0 -9
BITMAP 
00
F0
80
E0
80
80
F0
00
00
ENDCHAR
STARTCHAR char46
ENCODING 70
SWIDTH 556 0
DWIDTH 5 0
BBX 4 9 0 -2
VVECTOR 2 7
SWIDTH1 0 -1000
DWIDTH1 0 -9
BITMAP 
00
F0
80
E0
80
80
80
00
00
ENDCHAR
STARTCHAR char47
ENCODING 71
SWIDTH 556 0
DWIDTH 5 0
BBX 4 9 0 -2
VVECTOR 2 7
SWIDTH1 0 -1000
DWIDTH1 0 -9
BITMAP 
00
60
90
80
B0
90
70
00
00
ENDCHAR
STARTCHAR char48
ENCODING 72
SWIDTH 556 0
DWIDTH 5 0
BBX 4 9 0 -2
VVECTOR 2 7
SWIDTH1 0 -1000
DWIDTH1 0 -9
BITMAP 
00
90
90
F0
90
90
90
00
00
ENDCHAR
STARTCHAR char49
ENCODING 73
SWIDTH 556 0
DWIDTH 5 0
BBX 3 9 1 -2
VVECTOR 3 7
SWIDTH1 0 -1000
DWIDTH1 0 -9
BITMAP 
00
E0
40
40
40
40
E0
00
00
ENDCHAR
STARTCHAR char4A
ENCODING 74
SWIDTH 556 0
DWIDTH 5 0
BBX 4 9 0 -2
VVECTOR 2 7
SWIDTH1 0 -1000
DWIDTH1 0 -9
BITMAP 
00
70
10
10
10
90
60
00
00
ENDCHAR
STARTCHAR char4B
ENCODING 75
SWIDTH 556 0
DWIDTH 5 0
BBX 4 9 0 -2
VVECTOR 2 7
SWIDTH1 0 -1000
DWIDTH1 0 -9
BITMAP 
00
90
A0
C0
A0
90
90
00
00
ENDCHAR
STARTCHAR char4C
ENCODING 76
SWIDTH 556 0
DWIDTH 5 0
BBX 4 9 0 -2
VVECTOR 2 7
SWIDTH1 0 -1000
DWIDTH1 0 -9
BITMAP 
00
80
80
80
80
80
F0
00
00
ENDCHAR
STARTCHAR char4D
ENCODING 77
SWIDTH 556 0
DWIDTH 5 0
BBX 4 9 0 -2
VVECTOR 2 7
SWIDTH1 0 -1000
DWIDTH1 0 -9
BITMAP 
00
90
F0
90
90
90
90
00
00
ENDCHAR
STARTCHAR char4E
ENCODING 78
SWIDTH 556 0
DWIDTH 5 0
BBX 4 9 0 -2
VVECTOR 2 7
SWIDTH1 0 -1000
DWIDTH1 0 -9
BITMAP 
00
90
D0
B0
90
90
90
00
00
ENDCHAR
STARTCHAR char4F
ENCODING 79
SWIDTH 556 0
DWIDTH 5 0
BBX 4 9 0 -2
VVECTOR 2 7
SWIDTH1 0 -1000
DWIDTH1 0 -9
BITMAP 
00
60
90
90
90
90
60
00
00
ENDCHAR
STARTCHAR char50
ENCODING 80
SWIDTH 556 0
DWIDTH 5 0
BBX 4 9 0 -2
VVECTOR 2 7
SWIDTH1 0 -1000
DWIDTH1 0 -9
BITMAP 
00
E0
90
90
E0
80
80
00
00
ENDCHAR
STARTCHAR char51
ENCODING 81
SWIDTH 556 0
DWIDTH 5 0
BBX 4 9 0 -2
VVECTOR 2 7
SWIDTH1 0 -1000
DWIDTH1 0 -9
BITMAP 
00
60
90
90
90
90
60
10
00
ENDCHAR
STARTCHAR char52
ENCODING 82
SWIDTH 556 0
DWIDTH 5 0
BBX 4 9 0 -2
VVECTOR 2 7
SWIDTH1 0 -1000
DWIDTH1 0 -9
BITMAP 
00
E0
90
90
E0
A0
90
00
00
ENDCHAR
STARTCHAR char53
ENCODING 83
SWIDTH 556 0
DWIDTH 5 0
BBX 4 9 0 -2
VVECTOR 2 7
SWIDTH1 0 -1000
DWIDTH1 0 -9
BITMAP 
00
60
90
40
20
90
60
00
00
ENDCHAR
STARTCHAR char54
ENCODING 84
SWIDTH 556 0
DWIDTH 5 0
BBX 5 9 0 -2
VVECTOR 3 7
SWIDTH1 0 -1000
DWIDTH1 0 -9
BITMAP 
00
F8
20
20
20
20
20
00
00
ENDCHAR
STARTCHAR char55
ENCODING 85
SWIDTH 556 0
DWIDTH 5 0
BBX 4 9 0 -2
VVECTOR 2 7
SWIDTH1 0 -1000
DWIDTH1 0 -9
BITMAP 
00
90
90
90
90
90
F0
00
00
ENDCHAR
STARTCHAR char56
ENCODING 86
SWIDTH 556 0
DWIDTH 5 0
BBX 4 9 0 -2
VVECTOR 2 7
SWIDTH1 0 -1000
DWIDTH1 0 -9
BITMAP 
00
90
90
90
90
90
60
00
00
ENDCHAR
STARTCHAR char57
ENCODING 87
SWIDTH 556 0
DWIDTH 5 0
BBX 4 9 0 -2
VVECTOR 2 7
SWIDTH1 0 -1000
DWIDTH1 0 -9
BITMAP 
00
90
90
90
90
F0
90
00
00
ENDCHAR
STARTCHAR char58
ENCODING 88
SWIDTH 556 0
DWIDTH 5 0
BBX 4 9 0 -2
VVECTOR 2 7
SWIDTH1 0 -1000
DWIDTH1 0 -9
BITMAP 
00
90
90
60
90
90
90
00
00
ENDCHAR
STARTCHAR char59
ENCODING 89
SWIDTH 556 0
DWIDTH 5 0
BBX 3 9 1 -2
VVECTOR 3 7
SWIDTH1 0 -1000
DWIDTH1 0 -9
BITMAP 
00
A0
A0
A0
40
40
40
00
00
ENDCHAR
STARTCHAR char5A
ENCODING 90
SWIDTH 556 0
DWIDTH 5 0
BBX 4 9 0 -2
VVECTOR 2 7
SWIDTH1 0 -1000
DWIDTH1 0 -9
BITMAP 
00
F0
10
20
40
80
F0
00
00
ENDCHAR
STARTCHAR char5B
ENCODING 91
SWIDTH 556 0
DWIDTH 5 0
BBX 3 9 1 -2
VVECTOR 3 7
SWIDTH1 0 -1000
DWIDTH1 0 -9
BITMAP 
00
E0
80
80
80
80
80
E0
00
ENDCHAR
STARTCHAR char5C
ENCODING 92
SWIDTH 556 0
DWIDTH 5 0
BBX 3 9 1 -2
VVECTOR 3 7
SWIDTH1 0 -1000
DWIDTH1 0 -9
BITMAP 
00
80
80
40
40
20
20
00
00
ENDCHAR
STARTCHAR char5D
ENCODING 93
SWIDTH 556 0
DWIDTH 5 0
BBX 3 9 1 -2
VVECTOR 3 7
SWIDTH1 0 -1000
DWIDTH1 0 -9
BITMAP 
00
E0
20
20
20
20
20
E0
00
ENDCHAR
STARTCHAR char5E
ENCODING 94
SWIDTH 556 0
DWIDTH 5 0
BBX 3 9 1 -2
VVECTOR 3 7
SWIDTH1 0 -1000
DWIDTH1 0 -9
BITMAP 
40
A0
00
00
00
00
00
00
00
ENDCHAR
STARTCHAR char5F
ENCODING 95
SWIDTH 556 0
DWIDTH 5 0
BBX 5 9 0 -2
VVECTOR 3 7
SWIDTH1 0 -1000
DWIDTH1 0 -9
BITMAP 
00
00
00
00
00
00
00
00
F8
ENDCHAR
STARTCHAR char60
ENCODING 96
SWIDTH 556 0
DWIDTH 5 0
BBX 2 9 1 -2
VVECTOR 2 7
SWIDTH1 0 -1000
DWIDTH1 0 -9
BITMAP 
80
40
00
00
00
00
00
00
00
ENDCHAR
STARTCHAR char61
ENCODING 97
SWIDTH 556 0
DWIDTH 5 0
BBX 4 9 0 -2
VVECTOR 2 7
SWIDTH1 0 -1000
DWIDTH1 0 -9
BITMAP 
00
00
60
10
70
90
70
00
00
ENDCHAR
STARTCHAR char62
ENCODING 98
SWIDTH 556 0
DWIDTH 5 0
BBX 4 9 0 -2
VVECTOR 2 7
SWIDTH1 0 -1000
DWIDTH1 0 -9
BITMAP 
00
80
E0
90
90
90
E0
00
00
ENDCHAR
STARTCHAR char63
ENCODING 99
SWIDTH 556 0
DWIDTH 5 0
BBX 4 9 0 -2
VVECTOR 2 7
SWIDTH1 0 -1000
DWIDTH1 0 -9
BITMAP 
00
00
60
90
80
90
60
00
00
ENDCHAR
STARTCHAR char64
ENCODING 100
SWIDTH 556 0
DWIDTH 5 0
BBX 4 9 0 -2
VVECTOR 2 7
SWIDTH1 0 -1000
DWIDTH1 0 -9
BITMAP 
00
10
70
90
90
90
70
00
00
ENDCHAR
STARTCHAR char65
ENCODING 101
SWIDTH 556 0
DWIDTH 5 0
BBX 4 9 0 -2
VVECTOR 2 7
SWIDTH1 0 -1000
DWIDTH1 0 -9
BITMAP 
00
00
60
90
F0
80
70
00
00
ENDCHAR
STARTCHAR char66
ENCODING 102
SWIDTH 556 0
DWIDTH 5 0
BBX 4 9 0 -2
VVECTOR 2 7
SWIDTH1 0 -1000
DWIDTH1 0 -9
BITMAP 
00
30
40
F0
40
40
40
00
00
ENDCHAR
STARTCHAR char67
ENCODING 103
SWIDTH 556 0
DWIDTH 5 0
BBX 4 9 0 -2
VVECTOR 2 7
SWIDTH1 0 -1000
DWIDTH1 0 -9
BITMAP 
00
00
70
90
90
90
70
90
60
ENDCHAR
STARTCHAR char68
ENCODING 104
SWIDTH 556 0
DWIDTH 5 0
BBX 4 9 0 -2
VVECTOR 2 7
SWIDTH1 0 -1000
DWIDTH1 0 -9
BITMAP 
00
80
E0
90
90
90
90
00
00
ENDCHAR
STARTCHAR char69
ENCODING 105
SWIDTH 556 0
DWIDTH 5 0
BBX 3 9 1 -2
VVECTOR 3 7
SWIDTH1 0 -1000
DWIDTH1 0 -9
BITMAP 
40
00
C0
40
40
40
E0
00
00
ENDCHAR
STARTCHAR char6A
ENCODING 106
SWIDTH 556 0
DWIDTH 5 0
BBX 4 9 0 -2
VVECTOR 2 7
SWIDTH1 0 -1000
DWIDTH1 0 -9
BITMAP 
10
00
30
10
10
10
10
90
60
ENDCHAR
STARTCHAR char6B
ENCODING 107
SWIDTH 556 0
DWIDTH 5 0
BBX 4 9 0 -2
VVECTOR 2 7
SWIDTH1 0 -1000
DWIDTH1 0 -9
BITMAP 
00
80
90
A0
C0
A0
90
00
00
ENDCHAR
STARTCHAR char6C
ENCODING 108
SWIDTH 556 0
DWIDTH 5 0
BBX 3 9 1 -2
VVECTOR 3 7
SWIDTH1 0 -1000
DWIDTH1 0 -9
BITMAP 
00
C0
40
40
40
40
E0
00
00
ENDCHAR
STARTCHAR char6D
ENCODING 109
SWIDTH 556 0
DWIDTH 5 0
BBX 4 9 0 -2
VVECTOR 2 7
SWIDTH1 0 -1000
DWIDTH1 0 -9
BITMAP 
00
00
90
F0
90
90
90
00
00
ENDCHAR
STARTCHAR char6E
ENCODING 110
SWIDTH 556 0
DWIDTH 5 0
BBX 4 9 0 -2
VVECTOR 2 7
SWIDTH1 0 -1000
DWIDTH1 0 -9
BITMAP 
00
00
E0
90
90
90
90
00
00
ENDCHAR
STARTCHAR char6F
ENCODING 111
SWIDTH 556 0
DWIDTH 5 0
BBX 4 9 0 -2
VVECTOR 2 7
SWIDTH1 0 -1000
DWIDTH1 0 -9
BITMAP 
00
00
60
90
90
90
60
00
00
ENDCHAR
STARTCHAR char70
ENCODING 112
SWIDTH 556 0
DWIDTH 5 0
BBX 4 9 0 -2
VVECTOR 2 7
SWIDTH1 0 -1000
DWIDTH1 0 -9
BITMAP 
00
00
E0
90
90
90
E0
80
80
ENDCHAR
STARTCHAR char71
ENCODING 113
SWIDTH 556 0
DWIDTH 5 0
BBX 4 9 0 -2
VVECTOR 2 7
SWIDTH1 0 -1000
DWIDTH1 0 -9
BITMAP 
00
00
70
90
90
90
70
10
10
ENDCHAR
STARTCHAR char72
ENCODING 114
SWIDTH 556 0
DWIDTH 5 0
BBX 4 9 0 -2
VVECTOR 2 7
SWIDTH1 0 -1000
DWIDTH1 0 -9
BITMAP 
00
00
B0
C0
80
80
80
00
00
ENDCHAR
STARTCHAR char73
ENCODING 115
SWIDTH 556 0
DWIDTH 5 0
BBX 4 9 0 -2
VVECTOR 2 7
SWIDTH1 0 -1000
DWIDTH1 0 -9
BITMAP 
00
00
70
80
60
10
E0
00
00
ENDCHAR
STARTCHAR char74
ENCODING 116
SWIDTH 556 0
DWIDTH 5 0
BBX 4 9 0 -2
VVECTOR 2 7
SWIDTH1 0 -1000
DWIDTH1 0 -9
BITMAP 
00
40
F0
40
40
40
30
00
00
ENDCHAR
STARTCHAR char75
ENCODING 117
SWIDTH 556 0
DWIDTH 5 0
BBX 4 9 0 -2
VVECTOR 2 7
SWIDTH1 0 -1000
DWIDTH1 0 -9
BITMAP 
00
00
90
90
90
90
F0
00
00
ENDCHAR
STARTCHAR char76
ENCODING 118
SWIDTH 556 0
DWIDTH 5 0
BBX 4 9 0 -2
VVECTOR 2 7
SWIDTH1 0 -1000
DWIDTH1 0 -9
BITMAP 
00
00
90
90
90
90
60
00
00
ENDCHAR
STARTCHAR char77
ENCODING 119
SWIDTH 556 0
DWIDTH 5 0
BBX 4 9 0 -2
VVECTOR 2 7
SWIDTH1 0 -1000
DWIDTH1 0 -9
BITMAP 
00
00
90
90
90
F0
90
00
00
ENDCHAR
STARTCHAR char78
ENCODING 120
SWIDTH 556 0
DWIDTH 5 0
BBX 4 9 0 -2
VVECTOR 2 7
SWIDTH1 0 -1000
DWIDTH1 0 -9
BITMAP 
00
00
90
90
60
90
90
00
00
ENDCHAR
STARTCHAR char79
ENCODING 121
SWIDTH 556 0
DWIDTH 5 0
BBX 4 9 0 -2
VVECTOR 2 7
SWIDTH1 0 -1000
DWIDTH1 0 -9
BITMAP 
00
00
90
90
90
90
60
20
C0
ENDCHAR
STARTCHAR char7A
ENCODING 122
SWIDTH 556 0
DWIDTH 5 0
BBX 4 9 0 -2
VVECTOR 2 7
SWIDTH1 0 -1000
DWIDTH1 0 -9
BITMAP 
00
00
F0
20
40
80
F0
00
00
ENDCHAR
STARTCHAR char7B
ENCODING 123
SWIDTH 556 0
DWIDTH 5 0
BBX 3 9 1 -2
VVECTOR 3 7
SWIDTH1 0 -1000
DWIDTH1 0 -9
BITMAP 
00
20
40
40
80
40
40
20
00
ENDCHAR
STARTCHAR char7C
ENCODING 124
SWIDTH 556 0
DWIDTH 5 0
BBX 1 9 2 -2
VVECTOR 3 7
SWIDTH1 0 -1000
DWIDTH1 0 -9
BITMAP 
00
80
80
80
80
80
80
80
00
ENDCHAR
STARTCHAR char7D
ENCODING 125
SWIDTH 556 0
DWIDTH 5 0
BBX 3 9 1 -2
VVECTOR 3 7
SWIDTH1 0 -1000
DWIDTH1 0 -9
BITMAP 
00
80
40
40
20
40
40
80
00
ENDCHAR
STARTCHAR char7E
ENCODING 126
SWIDTH 556 0
DWIDTH 5 0
BBX 4 9 0 -2
VVECTOR 2 7
SWIDTH1 0 -1000
DWIDTH1 0 -9
BITMAP 
50
A0
00
00
00
00
00
00
00
ENDCHAR
STARTCHAR char80
ENCODING 128
SWIDTH 556 0
DWIDTH 5 0
BBX 4 9 0 -2
VVECTOR 2 7
SWIDTH1 0 -1000
DWIDTH1 0 -9
BITMAP 
90
00
60
90
F0
90
90
00
00
ENDCHAR
STARTCHAR char81
ENCODING 129
SWIDTH 556 0
DWIDTH 5 0
BBX 4 9 0 -2
VVECTOR 2 7
SWIDTH1 0 -1000
DWIDTH1 0 -9
BITMAP 
60
90
60
90
F0
90
90
00
00
ENDCHAR
STARTCHAR char82
ENCODING 130
SWIDTH 556 0
DWIDTH 5 0
BBX 4 9 0 -2
VVECTOR 2 7
SWIDTH1 0 -1000
DWIDTH1 0 -9
BITMAP 
00
60
90
80
80
90
60
20
60
ENDCHAR
STARTCHAR char83
ENCODING 131
SWIDTH 556 0
DWIDTH 5 0
BBX 4 9 0 -2
VVECTOR 2 7
SWIDTH1 0 -1000
DWIDTH1 0 -9
BITMAP 
10
20
F0
80
E0
80
F0
00
00
ENDCHAR
STARTCHAR char84
ENCODING 132
SWIDTH 556 0
DWIDTH 5 0
BBX 4 9 0 -2
VVECTOR 2 7
SWIDTH1 0 -1000
DWIDTH1 0 -9
BITMAP 
50
A0
00
90
D0
B0
90
00
00
ENDCHAR
STARTCHAR char85
ENCODING 133
SWIDTH 556 0
DWIDTH 5 0
BBX 4 9 0 -2
VVECTOR 2 7
SWIDTH1 0 -1000
DWIDTH1 0 -9
BITMAP 
90
00
60
90
90
90
60
00
00
ENDCHAR
STARTCHAR char86
ENCODING 134
SWIDTH 556 0
DWIDTH 5 0
BBX 4 9 0 -2
VVECTOR 2 7
SWIDTH1 0 -1000
DWIDTH1 0 -9
BITMAP 
90
00
90
90
90
90
F0
00
00
ENDCHAR
STARTCHAR char87
ENCODING 135
SWIDTH 556 0
DWIDTH 5 0
BBX 5 9 0 -2
VVECTOR 3 7
SWIDTH1 0 -1000
DWIDTH1 0 -9
BITMAP 
10
20
00
70
90
90
68
00
00
ENDCHAR
STARTCHAR char88
ENCODING 136
SWIDTH 556 0
DWIDTH 5 0
BBX 5 9 0 -2
VVECTOR 3 7
SWIDTH1 0 -1000
DWIDTH1 0 -9
BITMAP 
40
20
00
70
90
90
68
00
00
ENDCHAR
STARTCHAR char89
ENCODING 137
SWIDTH 556 0
DWIDTH 5 0
BBX 5 9 0 -2
VVECTOR 3 7
SWIDTH1 0 -1000
DWIDTH1 0 -9
BITMAP 
20
50
00
70
90
90
68
00
00
ENDCHAR
STARTCHAR char8A
ENCODING 138
SWIDTH 556 0
DWIDTH 5 0
BBX 5 9 0 -2
VVECTOR 3 7
SWIDTH1 0 -1000
DWIDTH1 0 -9
BITMAP 
00
50
00
70
90
90
68
00
00
ENDCHAR
STARTCHAR char8B
ENCODING 139
SWIDTH 556 0
DWIDTH 5 0
BBX 5 9 0 -2
VVECTOR 3 7
SWIDTH1 0 -1000
DWIDTH1 0 -9
BITMAP 
50
A0
00
70
90
90
68
00
00
ENDCHAR
STARTCHAR char8C
ENCODING 140
SWIDTH 556 0
DWIDTH 5 0
BBX 5 9 0 -2
VVECTOR 3 7
SWIDTH1 0 -1000
DWIDTH1 0 -9
BITMAP 
00
60
90
60
90
90
68
00
00
ENDCHAR
STARTCHAR char8D
ENCODING 141
SWIDTH 556 0
DWIDTH 5 0
BBX 4 9 0 -2
VVECTOR 2 7
SWIDTH1 0 -1000
DWIDTH1 0 -9
BITMAP 
00
00
60
90
80
90
60
20
60
ENDCHAR
STARTCHAR char8E
ENCODING 142
SWIDTH 556 0
DWIDTH 5 0
BBX 4 9 0 -2
VVECTOR 2 7
SWIDTH1 0 -1000
DWIDTH1 0 -9
BITMAP 
10
20
00
70
90
C0
70
00
00
ENDCHAR
STARTCHAR char8F
ENCODING 143
SWIDTH 556 0
DWIDTH 5 0
BBX 4 9 0 -2
VVECTOR 2 7
SWIDTH1 0 -1000
DWIDTH1 0 -9
BITMAP 
40
20
00
60
90
C0
70
00
00
ENDCHAR
STARTCHAR char90
ENCODING 144
SWIDTH 556 0
DWIDTH 5 0
BBX 4 9 0 -2
VVECTOR 2 7
SWIDTH1 0 -1000
DWIDTH1 0 -9
BITMAP 
20
50
00
70
90
C0
70
00
00
ENDCHAR
STARTCHAR char91
ENCODING 145
SWIDTH 556 0
DWIDTH 5 0
BBX 4 9 0 -2
VVECTOR 2 7
SWIDTH1 0 -1000
DWIDTH1 0 -9
BITMAP 
00
50
00
70
90
C0
70
00
00
ENDCHAR
STARTCHAR char92
ENCODING 146
SWIDTH 556 0
DWIDTH 5 0
BBX 3 9 1 -2
VVECTOR 3 7
SWIDTH1 0 -1000
DWIDTH1 0 -9
BITMAP 
20
40
00
C0
40
40
E0
00
00
ENDCHAR
STARTCHAR char93
ENCODING 147
SWIDTH 556 0
DWIDTH 5 0
BBX 3 9 1 -2
VVECTOR 3 7
SWIDTH1 0 -1000
DWIDTH1 0 -9
BITMAP 
80
40
00
C0
40
40
E0
00
00
ENDCHAR
STARTCHAR char94
ENCODING 148
SWIDTH 556 0
DWIDTH 5 0
BBX 3 9 1 -2
VVECTOR 3 7
SWIDTH1 0 -1000
DWIDTH1 0 -9
BITMAP 
40
A0
00
C0
40
40
E0
00
00
ENDCHAR
STARTCHAR char95
ENCODING 149
SWIDTH 556 0
DWIDTH 5 0
BBX 3 9 1 -2
VVECTOR 3 7
SWIDTH1 0 -1000
DWIDTH1 0 -9
BITMAP 
00
A0
00
C0
40
40
E0
00
00
ENDCHAR
STARTCHAR char96
ENCODING 150
SWIDTH 556 0
DWIDTH 5 0
BBX 4 9 0 -2
VVECTOR 2 7
SWIDTH1 0 -1000
DWIDTH1 0 -9
BITMAP 
50
A0
00
E0
90
90
90
00
00
ENDCHAR
STARTCHAR char97
ENCODING 151
SWIDTH 556 0
DWIDTH 5 0
BBX 4 9 0 -2
VVECTOR 2 7
SWIDTH1 0 -1000
DWIDTH1 0 -9
BITMAP 
20
40
00
60
90
90
60
00
00
ENDCHAR
STARTCHAR char98
ENCODING 152
SWIDTH 556 0
DWIDTH 5 0
BBX 4 9 0 -2
VVECTOR 2 7
SWIDTH1 0 -1000
DWIDTH1 0 -9
BITMAP 
40
20
00
60
90
90
60
00
00
ENDCHAR
STARTCHAR char99
ENCODING 153
SWIDTH 556 0
DWIDTH 5 0
BBX 4 9 0 -2
VVECTOR 2 7
SWIDTH1 0 -1000
DWIDTH1 0 -9
BITMAP 
60
90
00
60
90
90
60
00
00
ENDCHAR
STARTCHAR char9A
ENCODING 154
SWIDTH 556 0
DWIDTH 5 0
BBX 4 9 0 -2
VVECTOR 2 7
SWIDTH1 0 -1000
DWIDTH1 0 -9
BITMAP 
00
90
00
60
90
90
60
00
00
ENDCHAR
STARTCHAR char9B
ENCODING 155
SWIDTH 556 0
DWIDTH 5 0
BBX 4 9 0 -2
VVECTOR 2 7
SWIDTH1 0 -1000
DWIDTH1 0 -9
BITMAP 
50
A0
00
60
90
90
60
00
00
ENDCHAR
STARTCHAR char9C
ENCODING 156
SWIDTH 556 0
DWIDTH 5 0
BBX 4 9 0 -2
VVECTOR 2 7
SWIDTH1 0 -1000
DWIDTH1 0 -9
BITMAP 
20
40
00
90
90
90
F0
00
00
ENDCHAR
STARTCHAR char9D
ENCODING 157
SWIDTH 556 0
DWIDTH 5 0
BBX 4 9 0 -2
VVECTOR 2 7
SWIDTH1 0 -1000
DWIDTH1 0 -9
BITMAP 
40
20
00
90
90
90
F0
00
00
ENDCHAR
STARTCHAR char9E
ENCODING 158
SWIDTH 556 0
DWIDTH 5 0
BBX 4 9 0 -2
VVECTOR 2 7
SWIDTH1 0 -1000
DWIDTH1 0 -9
BITMAP 
60
90
00
90
90
90
F0
00
00
ENDCHAR
STARTCHAR char9F
ENCODING 159
SWIDTH 556 0
DWIDTH 5 0
BBX 4 9 0 -2
VVECTOR 2 7
SWIDTH1 0 -1000
DWIDTH1 0 -9
BITMAP 
00
90
00
90
90
90
F0
00
00
ENDCHAR
STARTCHAR charA0
ENCODING 160
SWIDTH 556 0
DWIDTH 5 0
BBX 3 9 1 -2
VVECTOR 3 7
SWIDTH1 0 -1000
DWIDTH1 0 -9
BITMAP 
00
40
E0
40
40
40
40
40
00
ENDCHAR
STARTCHAR charA1
ENCODING 161
SWIDTH 556 0
DWIDTH 5 0
BBX 4 9 0 -2
VVECTOR 2 7
SWIDTH1 0 -1000
DWIDTH1 0 -9
BITMAP 
00
60
90
60
00
00
00
00
00
ENDCHAR
STARTCHAR charA2
ENCODING 162
SWIDTH 556 0
DWIDTH 5 0
BBX 4 9 0 -2
VVECTOR 2 7
SWIDTH1 0 -1000
DWIDTH1 0 -9
BITMAP 
00
20
70
80
80
70
20
00
00
ENDCHAR
STARTCHAR charA3
ENCODING 163
SWIDTH 556 0
DWIDTH 5 0
BBX 5 9 0 -2
VVECTOR 3 7
SWIDTH1 0 -1000
DWIDTH1 0 -9
BITMAP 
00
30
40
E0
40
48
70
00
00
ENDCHAR
STARTCHAR charA4
ENCODING 164
SWIDTH 556 0
DWIDTH 5 0
BBX 4 9 0 -2
VVECTOR 2 7
SWIDTH1 0 -1000
DWIDTH1 0 -9
BITMAP 
00
60
80
60
90
90
60
10
60
ENDCHAR
STARTCHAR charA5
ENCODING 165
SWIDTH 556 0
DWIDTH 5 0
BBX 3 9 1 -2
VVECTOR 3 7
SWIDTH1 0 -1000
DWIDTH1 0 -9
BITMAP 
00
00
00
E0
E0
00
00
00
00
ENDCHAR
STARTCHAR charA6
ENCODING 166
SWIDTH 556 0
DWIDTH 5 0
BBX 5 9 0 -2
VVECTOR 3 7
SWIDTH1 0 -1000
DWIDTH1 0 -9
BITMAP 
00
58
D0
D0
50
50
50
50
00
ENDCHAR
STARTCHAR charA7
ENCODING 167
SWIDTH 556 0
DWIDTH 5 0
BBX 4 9 0 -2
VVECTOR 2 7
SWIDTH1 0 -1000
DWIDTH1 0 -9
BITMAP 
00
60
90
A0
90
90
A0
80
00
ENDCHAR
STARTCHAR charA8
ENCODING 168
SWIDTH 556 0
DWIDTH 5 0
BBX 2 9 1 -2
VVECTOR 2 7
SWIDTH1 0 -1000
DWIDTH1 0 -9
BITMAP 
00
00
C0
80
80
00
00
00
00
ENDCHAR
STARTCHAR charA9
ENCODING 169
SWIDTH 556 0
DWIDTH 5 0
BBX 3 9 1 -2
VVECTOR 3 7
SWIDTH1 0 -1000
DWIDTH1 0 -9
BITMAP 
00
00
E0
80
E0
00
00
00
00
ENDCHAR
STARTCHAR charAA
ENCODING 170
SWIDTH 556 0
DWIDTH 5 0
BBX 5 9 0 -2
VVECTOR 3 7
SWIDTH1 0 -1000
DWIDTH1 0 -9
BITMAP 
00
E8
58
48
00
00
00
00
00
ENDCHAR
STARTCHAR charAB
ENCODING 171
SWIDTH 556 0
DWIDTH 5 0
BBX 2 9 2 -2
VVECTOR 3 7
SWIDTH1 0 -1000
DWIDTH1 0 -9
BITMAP 
40
80
00
00
00
00
00
00
00
ENDCHAR
STARTCHAR charAC
ENCODING 172
SWIDTH 556 0
DWIDTH 5 0
BBX 3 9 1 -2
VVECTOR 3 7
SWIDTH1 0 -1000
DWIDTH1 0 -9
BITMAP 
A0
00
00
00
00
00
00
00
00
ENDCHAR
STARTCHAR charAD
ENCODING 173
SWIDTH 556 0
DWIDTH 5 0
BBX 5 9 0 -2
VVECTOR 3 7
SWIDTH1 0 -1000
DWIDTH1 0 -9
BITMAP 
00
00
10
F8
20
F8
40
00
00
ENDCHAR
STARTCHAR charAE
ENCODING 174
SWIDTH 556 0
DWIDTH 5 0
BBX 4 9 0 -2
VVECTOR 2 7
SWIDTH1 0 -1000
DWIDTH1 0 -9
BITMAP 
00
70
A0
F0
A0
A0
B0
00
00
ENDCHAR
STARTCHAR charAF
ENCODING 175
SWIDTH 556 0
DWIDTH 5 0
BBX 4 9 0 -2
VVECTOR 2 7
SWIDTH1 0 -1000
DWIDTH1 0 -9
BITMAP 
00
60
90
B0
D0
90
60
00
00
ENDCHAR
STARTCHAR charB0
ENCODING 176
SWIDTH 556 0
DWIDTH 5 0
BBX 5 9 0 -2
VVECTOR 3 7
SWIDTH1 0 -1000
DWIDTH1 0 -9
BITMAP 
00
00
00
50
A8
50
00
00
00
ENDCHAR
STARTCHAR charB1
ENCODING 177
SWIDTH 556 0
DWIDTH 5 0
BBX 3 9 1 -2
VVECTOR 3 7
SWIDTH1 0 -1000
DWIDTH1 0 -9
BITMAP 
00
00
40
E0
40
00
E0
00
00
ENDCHAR
STARTCHAR charB2
ENCODING 178
SWIDTH 556 0
DWIDTH 5 0
BBX 3 9 1 -2
VVECTOR 3 7
SWIDTH1 0 -1000
DWIDTH1 0 -9
BITMAP 
00
00
40
80
40
00
E0
00
00
ENDCHAR
STARTCHAR charB3
ENCODING 179
SWIDTH 556 0
DWIDTH 5 0
BBX 3 9 1 -2
VVECTOR 3 7
SWIDTH1 0 -1000
DWIDTH1 0 -9
BITMAP 
00
00
40
20
40
00
E0
00
00
ENDCHAR
STARTCHAR charB4
ENCODING 180
SWIDTH 556 0
DWIDTH 5 0
BBX 5 9 0 -2
VVECTOR 3 7
SWIDTH1 0 -1000
DWIDTH1 0 -9
BITMAP 
00
88
50
20
70
20
20
00
00
ENDCHAR
STARTCHAR charB5
ENCODING 181
SWIDTH 556 0
DWIDTH 5 0
BBX 5 9 0 -2
VVECTOR 3 7
SWIDTH1 0 -1000
DWIDTH1 0 -9
BITMAP 
00
00
00
90
90
90
E8
80
00
ENDCHAR
STARTCHAR charB6
ENCODING 182
SWIDTH 556 0
DWIDTH 5 0
BBX 4 9 0 -2
VVECTOR 2 7
SWIDTH1 0 -1000
DWIDTH1 0 -9
BITMAP 
00
60
10
70
90
90
60
00
00
ENDCHAR
STARTCHAR charB7
ENCODING 183
SWIDTH 556 0
DWIDTH 5 0
BBX 4 9 0 -2
VVECTOR 2 7
SWIDTH1 0 -1000
DWIDTH1 0 -9
BITMAP 
00
E0
90
40
20
40
90
E0
00
ENDCHAR
STARTCHAR charB8
ENCODING 184
SWIDTH 556 0
DWIDTH 5 0
BBX 5 9 0 -2
VVECTOR 3 7
SWIDTH1 0 -1000
DWIDTH1 0 -9
BITMAP 
00
F8
50
50
50
50
50
00
00
ENDCHAR
STARTCHAR charB9
ENCODING 185
SWIDTH 556 0
DWIDTH 5 0
BBX 5 9 0 -2
VVECTOR 3 7
SWIDTH1 0 -1000
DWIDTH1 0 -9
BITMAP 
00
00
F8
50
50
50
50
00
00
ENDCHAR
STARTCHAR charBA
ENCODING 186
SWIDTH 556 0
DWIDTH 5 0
BBX 5 9 0 -2
VVECTOR 3 7
SWIDTH1 0 -1000
DWIDTH1 0 -9
BITMAP 
00
18
20
20
20
20
20
20
C0
ENDCHAR
STARTCHAR charBB
ENCODING 187
SWIDTH 556 0
DWIDTH 5 0
BBX 5 9 0 -2
VVECTOR 3 7
SWIDTH1 0 -1000
DWIDTH1 0 -9
BITMAP 
00
70
90
90
68
00
F0
00
00
ENDCHAR
STARTCHAR charBC
ENCODING 188
SWIDTH 556 0
DWIDTH 5 0
BBX 4 9 0 -2
VVECTOR 2 7
SWIDTH1 0 -1000
DWIDTH1 0 -9
BITMAP 
00
60
90
90
60
00
F0
00
00
ENDCHAR
STARTCHAR charBD
ENCODING 189
SWIDTH 556 0
DWIDTH 5 0
BBX 5 9 0 -2
VVECTOR 3 7
SWIDTH1 0 -1000
DWIDTH1 0 -9
BITMAP 
00
70
88
88
88
50
D8
00
00
ENDCHAR
STARTCHAR charBE
ENCODING 190
SWIDTH 556 0
DWIDTH 5 0
BBX 5 9 0 -2
VVECTOR 3 7
SWIDTH1 0 -1000
DWIDTH1 0 -9
BITMAP 
00
00
D8
28
F8
A0
D8
00
00
ENDCHAR
STARTCHAR charBF
ENCODING 191
SWIDTH 556 0
DWIDTH 5 0
BBX 4 9 0 -2
VVECTOR 2 7
SWIDTH1 0 -1000
DWIDTH1 0 -9
BITMAP 
00
00
60
90
F0
90
60
00
00
ENDCHAR
STARTCHAR charC0
ENCODING 192
SWIDTH 556 0
DWIDTH 5 0
BBX 4 9 0 -2
VVECTOR 2 7
SWIDTH1 0 -1000
DWIDTH1 0 -9
BITMAP 
00
20
00
20
40
90
60
00
00
ENDCHAR
STARTCHAR charC1
ENCODING 193
SWIDTH 556 0
DWIDTH 5 0
BBX 1 9 2 -2
VVECTOR 3 7
SWIDTH1 0 -1000
DWIDTH1 0 -9
BITMAP 
00
80
00
80
80
80
80
00
00
ENDCHAR
STARTCHAR charC2
ENCODING 194
SWIDTH 556 0
DWIDTH 5 0
BBX 4 9 0 -2
VVECTOR 2 7
SWIDTH1 0 -1000
DWIDTH1 0 -9
BITMAP 
00
00
00
00
F0
10
00
00
00
ENDCHAR
STARTCHAR charC3
ENCODING 195
SWIDTH 556 0
DWIDTH 5 0
BBX 4 9 0 -2
VVECTOR 2 7
SWIDTH1 0 -1000
DWIDTH1 0 -9
BITMAP 
00
30
20
20
20
20
E0
20
00
ENDCHAR
STARTCHAR charC4
ENCODING 196
SWIDTH 556 0
DWIDTH 5 0
BBX 5 9 0 -2
VVECTOR 3 7
SWIDTH1 0 -1000
DWIDTH1 0 -9
BITMAP 
00
18
20
70
20
20
20
20
C0
ENDCHAR
STARTCHAR charC5
ENCODING 197
SWIDTH 556 0
DWIDTH 5 0
BBX 4 9 0 -2
VVECTOR 2 7
SWIDTH1 0 -1000
DWIDTH1 0 -9
BITMAP 
00
00
50
A0
00
50
A0
00
00
ENDCHAR
STARTCHAR charC6
ENCODING 198
SWIDTH 556 0
DWIDTH 5 0
BBX 5 9 0 -2
VVECTOR 3 7
SWIDTH1 0 -1000
DWIDTH1 0 -9
BITMAP 
00
20
20
50
50
88
F8
00
00
ENDCHAR
STARTCHAR charC7
ENCODING 199
SWIDTH 556 0
DWIDTH 5 0
BBX 5 9 0 -2
VVECTOR 3 7
SWIDTH1 0 -1000
DWIDTH1 0 -9
BITMAP 
00
00
00
00
48
90
48
00
00
ENDCHAR
STARTCHAR charC8
ENCODING 200
SWIDTH 556 0
DWIDTH 5 0
BBX 5 9 0 -2
VVECTOR 3 7
SWIDTH1 0 -1000
DWIDTH1 0 -9
BITMAP 
00
00
00
00
90
48
90
00
00
ENDCHAR
STARTCHAR charC9
ENCODING 201
SWIDTH 556 0
DWIDTH 5 0
BBX 5 9 0 -2
VVECTOR 3 7
SWIDTH1 0 -1000
DWIDTH1 0 -9
BITMAP 
00
00
00
00
00
00
A8
00
00
ENDCHAR
STARTCHAR charCA
ENCODING 202
SWIDTH 556 0
DWIDTH 5 0
BBX 0 0 0 -2
VVECTOR 0 -2
SWIDTH1 0 0
DWIDTH1 0 0
BITMAP 
ENDCHAR
STARTCHAR charCB
ENCODING 203
SWIDTH 556 0
DWIDTH 5 0
BBX 4 9 0 -2
VVECTOR 2 7
SWIDTH1 0 -1000
DWIDTH1 0 -9
BITMAP 
20
40
00
60
90
F0
90
00
00
ENDCHAR
STARTCHAR charCC
ENCODING 204
SWIDTH 556 0
DWIDTH 5 0
BBX 4 9 0 -2
VVECTOR 2 7
SWIDTH1 0 -1000
DWIDTH1 0 -9
BITMAP 
50
A0
00
60
90
F0
90
00
00
ENDCHAR
STARTCHAR charCD
ENCODING 205
SWIDTH 556 0
DWIDTH 5 0
BBX 4 9 0 -2
VVECTOR 2 7
SWIDTH1 0 -1000
DWIDTH1 0 -9
BITMAP 
50
A0
60
90
90
90
60
00
00
ENDCHAR
STARTCHAR charCE
ENCODING 206
SWIDTH 556 0
DWIDTH 5 0
BBX 4 9 0 -2
VVECTOR 2 7
SWIDTH1 0 -1000
DWIDTH1 0 -9
BITMAP 
00
70
A0
B0
A0
A0
70
00
00
ENDCHAR
STARTCHAR charCF
ENCODING 207
SWIDTH 556 0
DWIDTH 5 0
BBX 5 9 0 -2
VVECTOR 3 7
SWIDTH1 0 -1000
DWIDTH1 0 -9
BITMAP 
00
00
50
A8
B8
A0
58
00
00
ENDCHAR
STARTCHAR charD0
ENCODING 208
SWIDTH 556 0
DWIDTH 5 0
BBX 3 9 1 -2
VVECTOR 3 7
SWIDTH1 0 -1000
DWIDTH1 0 -9
BITMAP 
00
00
00
00
E0
00
00
00
00
ENDCHAR
STARTCHAR charD1
ENCODING 209
SWIDTH 556 0
DWIDTH 5 0
BBX 5 9 0 -2
VVECTOR 3 7
SWIDTH1 0 -1000
DWIDTH1 0 -9
BITMAP 
00
00
00
00
F8
00
00
00
00
ENDCHAR
STARTCHAR charD2
ENCODING 210
SWIDTH 556 0
DWIDTH 5 0
BBX 5 9 0 -2
VVECTOR 3 7
SWIDTH1 0 -1000
DWIDTH1 0 -9
BITMAP 
00
D8
90
00
00
00
00
00
00
ENDCHAR
STARTCHAR charD3
ENCODING 211
SWIDTH 556 0
DWIDTH 5 0
BBX 5 9 0 -2
VVECTOR 3 7
SWIDTH1 0 -1000
DWIDTH1 0 -9
BITMAP 
00
48
D8
00
00
00
00
00
00
ENDCHAR
STARTCHAR charD4
ENCODING 212
SWIDTH 556 0
DWIDTH 5 0
BBX 2 9 2 -2
VVECTOR 3 7
SWIDTH1 0 -1000
DWIDTH1 0 -9
BITMAP 
00
C0
80
00
00
00
00
00
00
ENDCHAR
STARTCHAR charD5
ENCODING 213
SWIDTH 556 0
DWIDTH 5 0
BBX 2 9 2 -2
VVECTOR 3 7
SWIDTH1 0 -1000
DWIDTH1 0 -9
BITMAP 
00
40
C0
00
00
00
00
00
00
ENDCHAR
STARTCHAR charD6
ENCODING 214
SWIDTH 556 0
DWIDTH 5 0
BBX 3 9 1 -2
VVECTOR 3 7
SWIDTH1 0 -1000
DWIDTH1 0 -9
BITMAP 
00
00
40
00
E0
00
40
00
00
ENDCHAR
STARTCHAR charD7
ENCODING 215
SWIDTH 556 0
DWIDTH 5 0
BBX 5 9 0 -2
VVECTOR 3 7
SWIDTH1 0 -1000
DWIDTH1 0 -9
BITMAP 
00
00
20
50
88
50
20
00
00
ENDCHAR
STARTCHAR charD8
ENCODING 216
SWIDTH 556 0
DWIDTH 5 0
BBX 4 9 0 -2
VVECTOR 2 7
SWIDTH1 0 -1000
DWIDTH1 0 -9
BITMAP 
00
90
00
90
90
90
60
20
C0
ENDCHAR
STARTCHAR missing
ENCODING -1
SWIDTH 556 0
DWIDTH 5 0
BBX 5 9 0 -2
VVECTOR 3 7
SWIDTH1 0 -1000
DWIDTH1 0 -9
BITMAP 
00
F8
88
E8
E8
C8
F8
C8
F8
ENDCHAR
ENDFONT
